<svg width="36" height="36" viewBox="0 0 36 36" fill="none" xmlns="http://www.w3.org/2000/svg">
<path d="M28.4664 22.3009C27.7283 21.5335 26.8381 21.1232 25.8946 21.1232C24.9586 21.1232 24.0608 21.5259 23.2922 22.2933L20.8878 24.6867C20.6899 24.5803 20.4921 24.4816 20.3019 24.3828C20.028 24.246 19.7692 24.1169 19.5486 23.9801C17.2963 22.5517 15.2495 20.6901 13.2863 18.2816C12.3352 17.0811 11.696 16.0705 11.2319 15.0448C11.8558 14.4749 12.4341 13.8823 12.9972 13.3124C13.2102 13.0997 13.4233 12.8793 13.6363 12.6666C15.2342 11.071 15.2342 9.00434 13.6363 7.40875L11.5591 5.33449C11.3232 5.09895 11.0797 4.85581 10.8514 4.61267C10.3949 4.14159 9.9155 3.65532 9.42091 3.19943C8.68283 2.47002 7.80017 2.08252 6.87187 2.08252C5.94356 2.08252 5.04569 2.47002 4.28478 3.19943C4.27717 3.20703 4.27717 3.20703 4.26956 3.21463L1.68248 5.82076C0.708518 6.79331 0.153055 7.97861 0.0313102 9.35386C-0.151308 11.5725 0.503073 13.6392 1.00527 14.9916C2.23794 18.312 4.07934 21.3892 6.82621 24.6867C10.159 28.6605 14.169 31.7985 18.7496 34.0095C20.4997 34.8377 22.8357 35.8179 25.4456 35.985C25.6054 35.9926 25.7728 36.0002 25.925 36.0002C27.6827 36.0002 29.1588 35.3696 30.3154 34.1159C30.323 34.1007 30.3383 34.0931 30.3459 34.0779C30.7415 33.5992 31.1981 33.1661 31.6774 32.7027C32.0046 32.3911 32.3394 32.0644 32.6666 31.7225C33.4199 30.9399 33.8156 30.0282 33.8156 29.0936C33.8156 28.1514 33.4123 27.2473 32.6438 26.4875L28.4664 22.3009ZM31.1905 30.3017C31.1829 30.3017 31.1829 30.3093 31.1905 30.3017C30.8937 30.6208 30.5894 30.9095 30.2622 31.2286C29.7676 31.6997 29.2654 32.1936 28.7936 32.7483C28.0251 33.5688 27.1196 33.9563 25.9326 33.9563C25.8185 33.9563 25.6967 33.9563 25.5826 33.9487C23.3227 33.8044 21.2226 32.923 19.6475 32.1708C15.3408 30.0889 11.5591 27.1333 8.41651 23.3875C5.82182 20.2647 4.08695 17.3774 2.93798 14.2774C2.23033 12.3855 1.97162 10.9115 2.08576 9.52101C2.16185 8.63204 2.50426 7.89503 3.13581 7.26439L5.73051 4.67345C6.10335 4.32394 6.49902 4.13399 6.88709 4.13399C7.36646 4.13399 7.75452 4.42272 7.99801 4.66586C8.00562 4.67345 8.01323 4.68105 8.02084 4.68865C8.48499 5.12174 8.92632 5.57003 9.39047 6.0487C9.62635 6.29184 9.86984 6.53498 10.1133 6.78571L12.1906 8.85998C12.9972 9.66538 12.9972 10.41 12.1906 11.2154C11.9699 11.4357 11.7569 11.6561 11.5362 11.8688C10.8971 12.5222 10.2883 13.1301 9.62635 13.7227C9.61113 13.7379 9.59592 13.7455 9.58831 13.7607C8.93393 14.4142 9.05567 15.0524 9.19264 15.4855C9.20024 15.5083 9.20785 15.5311 9.21546 15.5539C9.75571 16.8607 10.5166 18.0916 11.6732 19.558L11.6808 19.5656C13.7809 22.149 15.9951 24.1625 18.4377 25.7049C18.7496 25.9024 19.0692 26.062 19.3736 26.2139C19.6475 26.3507 19.9062 26.4799 20.1269 26.6166C20.1573 26.6318 20.1877 26.6546 20.2182 26.6698C20.4769 26.799 20.7204 26.8598 20.9715 26.8598C21.603 26.8598 21.9987 26.4647 22.1281 26.3355L24.7304 23.737C24.9891 23.4786 25.4 23.1671 25.8793 23.1671C26.3511 23.1671 26.7392 23.4634 26.975 23.7218C26.9826 23.7294 26.9826 23.7294 26.9903 23.737L31.1829 27.9235C31.9666 28.6985 31.9666 29.4963 31.1905 30.3017Z" fill="#E7E7E7"/>
<path d="M19.4571 8.56362C21.4507 8.89794 23.2616 9.8401 24.7074 11.2837C26.1531 12.7274 27.089 14.5357 27.4314 16.5264C27.5151 17.0279 27.9488 17.3774 28.4434 17.3774C28.5043 17.3774 28.5575 17.3698 28.6184 17.3622C29.1815 17.271 29.5543 16.7391 29.463 16.1769C29.0521 13.7683 27.9108 11.5725 26.1683 9.8325C24.4258 8.09254 22.2268 6.95284 19.8147 6.54254C19.2517 6.45136 18.7266 6.82367 18.6277 7.37833C18.5288 7.93298 18.894 8.47245 19.4571 8.56362Z" fill="#E7E7E7"/>
<path d="M35.9844 15.8804C35.3072 11.9142 33.4354 8.30511 30.5591 5.43305C27.6829 2.56099 24.0686 0.691865 20.0967 0.0156379C19.5412 -0.0831368 19.0162 0.296766 18.9172 0.851424C18.8259 1.41368 19.1988 1.93795 19.7619 2.03672C23.3077 2.63697 26.5415 4.31614 29.1134 6.87668C31.6853 9.44482 33.3593 12.674 33.9604 16.2147C34.0441 16.7162 34.4778 17.0657 34.9724 17.0657C35.0333 17.0657 35.0865 17.0581 35.1474 17.0505C35.7029 16.9669 36.0833 16.435 35.9844 15.8804Z" fill="#E7E7E7"/>
</svg>
