<?xml version="1.0" encoding="utf-8"?><svg viewBox="0 0 86 100" xmlns="http://www.w3.org/2000/svg" xmlns:xlink="http://www.w3.org/1999/xlink"><style>:root>svg{display:none}:root>svg:target{display:block}</style><svg viewBox="0 0 86 100" id="about" xmlns="http://www.w3.org/2000/svg"><path d="M0 0l85.714 50L0 100V0z"/></svg><svg viewBox="0 0 44 44" id="burger" xmlns="http://www.w3.org/2000/svg"><g clip-path="url(#bclip0_669_1036)"><path d="M44 20.336c0-1.69-1.09-3.128-2.602-3.653-.232-5.241-2.189-9.263-5.825-11.966C32.254 2.251 27.688 1 22 1 16.312 1 11.746 2.25 8.427 4.717 4.791 7.42 2.834 11.442 2.602 16.683A3.873 3.873 0 000 20.336c0 .99.374 1.893.988 2.578A3.851 3.851 0 000 25.492c0 1.7 1.103 3.146 2.63 3.663.553 5.89 5.56 10.517 11.636 10.517h15.468c6.076 0 11.084-4.627 11.636-10.517A3.873 3.873 0 0044 25.492c0-.99-.374-1.893-.988-2.578A3.852 3.852 0 0044 20.336zM22 3.578c7.393 0 16.151 2.28 16.803 12.89H5.197C5.849 5.859 14.607 3.579 22 3.579zM3.867 19.047h36.266c.71 0 1.289.578 1.289 1.289 0 .71-.578 1.289-1.29 1.289H3.868a1.29 1.29 0 01-1.289-1.29c0-.71.578-1.288 1.29-1.288zm25.867 18.047H14.266c-4.581 0-8.383-3.367-9.016-7.735h1.195c.862 0 1.134.293 1.677.878.667.718 1.58 1.7 3.566 1.7 2 0 2.889-.993 3.538-1.718.513-.572.77-.86 1.618-.86.848 0 1.105.288 1.617.86.65.725 1.54 1.718 3.539 1.718 2 0 2.89-.993 3.538-1.718.513-.572.77-.86 1.618-.86.848 0 1.105.288 1.618.86.65.725 1.539 1.718 3.538 1.718 2 0 2.89-.993 3.539-1.718.513-.572.77-.86 1.618-.86h1.281c-.633 4.367-4.435 7.735-9.016 7.735zM40.133 26.78h-2.664c-2 0-2.89.993-3.539 1.719-.512.572-.77.86-1.617.86-.848 0-1.106-.288-1.618-.86-.65-.726-1.539-1.719-3.539-1.719s-2.889.993-3.538 1.719c-.513.572-.77.86-1.618.86-.848 0-1.105-.288-1.618-.86-.65-.726-1.538-1.719-3.538-1.719-2 0-2.89.993-3.539 1.719-.512.572-.77.86-1.617.86-.862 0-1.135-.294-1.677-.878-.667-.718-1.58-1.7-3.566-1.7H3.867a1.29 1.29 0 01-1.289-1.29c0-.71.578-1.289 1.29-1.289h36.265a1.29 1.29 0 010 2.578z"/><path d="M14.266 13.89a1.289 1.289 0 100-2.577 1.289 1.289 0 000 2.578zM29.734 13.89a1.289 1.289 0 100-2.577 1.289 1.289 0 000 2.578zM24.578 11.313a1.289 1.289 0 100-2.579 1.289 1.289 0 000 2.579zM19.422 8.734a1.289 1.289 0 100-2.578 1.289 1.289 0 000 2.578z"/></g><defs><clipPath id="bclip0_669_1036"><path d="M0 0h44v44H0z"/></clipPath></defs></svg><svg viewBox="0 0 25 21" id="reviews-left" xmlns="http://www.w3.org/2000/svg"><path d="M5.218 10.673c1.277.095 2.328.571 3.153 1.428.825.856 1.249 1.951 1.27 3.284.023 1.45-.393 2.645-1.248 3.586-.856.883-1.95 1.335-3.283 1.357-1.507.024-2.733-.508-3.678-1.594-.887-1.088-1.349-2.79-1.386-5.11-.07-4.463 1.346-8.34 4.25-11.634.571-.588 1.233-.889 1.987-.9.637-.01 1.192.212 1.663.669.47.398.71.887.719 1.467.01.637-.213 1.192-.67 1.663-1.482 1.589-2.408 3.517-2.777 5.784zm14.433-.23c1.276.096 2.328.572 3.153 1.429.825.856 1.248 1.951 1.27 3.284.023 1.45-.393 2.645-1.248 3.586-.855.883-1.95 1.335-3.283 1.357-1.507.023-2.733-.508-3.678-1.595-.887-1.087-1.349-2.79-1.386-5.109-.07-4.463 1.346-8.34 4.25-11.634.571-.589 1.233-.889 1.987-.901.637-.01 1.192.213 1.663.67.47.398.71.887.719 1.466.01.638-.213 1.192-.67 1.663-1.482 1.59-2.408 3.517-2.777 5.784z"/></svg><svg viewBox="0 0 24 20" id="reviews-right" xmlns="http://www.w3.org/2000/svg"><path d="M18.783 9.565c-1.276.116-2.32.609-3.13 1.479-.812.869-1.218 1.97-1.218 3.304 0 1.45.435 2.637 1.304 3.565.87.87 1.971 1.304 3.305 1.304 1.507 0 2.724-.55 3.652-1.652.87-1.101 1.304-2.811 1.304-5.13C24 7.97 22.522 4.115 19.565.87c-.58-.58-1.246-.87-2-.87-.638 0-1.188.232-1.652.696-.464.405-.696.898-.696 1.478 0 .638.232 1.188.696 1.652 1.507 1.565 2.464 3.478 2.87 5.74zm-14.435 0c-1.276.116-2.319.609-3.13 1.479C.405 11.912 0 13.014 0 14.348c0 1.45.435 2.637 1.304 3.565.87.87 1.971 1.304 3.305 1.304 1.507 0 2.724-.55 3.652-1.652.87-1.101 1.304-2.811 1.304-5.13C9.565 7.97 8.087 4.115 5.13.87 4.55.29 3.884 0 3.13 0c-.637 0-1.188.232-1.652.696-.464.405-.695.898-.695 1.478 0 .638.231 1.188.695 1.652 1.508 1.565 2.464 3.478 2.87 5.74z"/></svg></svg>