<?xml version="1.0" encoding="utf-8"?><svg viewBox="0 0 86 100" xmlns="http://www.w3.org/2000/svg" xmlns:xlink="http://www.w3.org/1999/xlink"><style>:root>svg{display:none}:root>svg:target{display:block}</style><svg viewBox="0 0 86 100" id="about" xmlns="http://www.w3.org/2000/svg"><path d="M0 0l85.714 50L0 100V0z"/></svg><svg viewBox="0 0 44 44" id="burger" xmlns="http://www.w3.org/2000/svg"><g clip-path="url(#bclip0_669_1036)"><path d="M44 20.336c0-1.69-1.09-3.128-2.602-3.653-.232-5.241-2.189-9.263-5.825-11.966C32.254 2.251 27.688 1 22 1 16.312 1 11.746 2.25 8.427 4.717 4.791 7.42 2.834 11.442 2.602 16.683A3.873 3.873 0 000 20.336c0 .99.374 1.893.988 2.578A3.851 3.851 0 000 25.492c0 1.7 1.103 3.146 2.63 3.663.553 5.89 5.56 10.517 11.636 10.517h15.468c6.076 0 11.084-4.627 11.636-10.517A3.873 3.873 0 0044 25.492c0-.99-.374-1.893-.988-2.578A3.852 3.852 0 0044 20.336zM22 3.578c7.393 0 16.151 2.28 16.803 12.89H5.197C5.849 5.859 14.607 3.579 22 3.579zM3.867 19.047h36.266c.71 0 1.289.578 1.289 1.289 0 .71-.578 1.289-1.29 1.289H3.868a1.29 1.29 0 01-1.289-1.29c0-.71.578-1.288 1.29-1.288zm25.867 18.047H14.266c-4.581 0-8.383-3.367-9.016-7.735h1.195c.862 0 1.134.293 1.677.878.667.718 1.58 1.7 3.566 1.7 2 0 2.889-.993 3.538-1.718.513-.572.77-.86 1.618-.86.848 0 1.105.288 1.617.86.65.725 1.54 1.718 3.539 1.718 2 0 2.89-.993 3.538-1.718.513-.572.77-.86 1.618-.86.848 0 1.105.288 1.618.86.65.725 1.539 1.718 3.538 1.718 2 0 2.89-.993 3.539-1.718.513-.572.77-.86 1.618-.86h1.281c-.633 4.367-4.435 7.735-9.016 7.735zM40.133 26.78h-2.664c-2 0-2.89.993-3.539 1.719-.512.572-.77.86-1.617.86-.848 0-1.106-.288-1.618-.86-.65-.726-1.539-1.719-3.539-1.719s-2.889.993-3.538 1.719c-.513.572-.77.86-1.618.86-.848 0-1.105-.288-1.618-.86-.65-.726-1.538-1.719-3.538-1.719-2 0-2.89.993-3.539 1.719-.512.572-.77.86-1.617.86-.862 0-1.135-.294-1.677-.878-.667-.718-1.58-1.7-3.566-1.7H3.867a1.29 1.29 0 01-1.289-1.29c0-.71.578-1.289 1.29-1.289h36.265a1.29 1.29 0 010 2.578z"/><path d="M14.266 13.89a1.289 1.289 0 100-2.577 1.289 1.289 0 000 2.578zM29.734 13.89a1.289 1.289 0 100-2.577 1.289 1.289 0 000 2.578zM24.578 11.313a1.289 1.289 0 100-2.579 1.289 1.289 0 000 2.579zM19.422 8.734a1.289 1.289 0 100-2.578 1.289 1.289 0 000 2.578z"/></g><defs><clipPath id="bclip0_669_1036"><path d="M0 0h44v44H0z"/></clipPath></defs></svg><svg viewBox="0 0 34 34" id="instagram" xmlns="http://www.w3.org/2000/svg"><path fill-rule="evenodd" clip-rule="evenodd" d="M0 17C0 7.611 7.611 0 17 0s17 7.611 17 17-7.611 17-17 17S0 26.389 0 17zm17-9.067c-2.461 0-2.77.011-3.738.055-.965.044-1.624.197-2.2.421a4.44 4.44 0 00-1.606 1.046 4.45 4.45 0 00-1.047 1.606c-.225.576-.378 1.236-.421 2.2-.043.968-.055 1.277-.055 3.74 0 2.461.011 2.77.055 3.737.045.965.197 1.624.421 2.2a4.442 4.442 0 001.046 1.606 4.44 4.44 0 001.606 1.047c.576.224 1.236.377 2.2.421.968.044 1.277.055 3.739.055 2.462 0 2.77-.01 3.738-.055.965-.044 1.624-.197 2.201-.421a4.437 4.437 0 001.605-1.047 4.453 4.453 0 001.047-1.605c.223-.577.376-1.236.42-2.201.044-.967.056-1.276.056-3.738 0-2.462-.012-2.771-.055-3.738-.045-.966-.198-1.625-.421-2.201a4.451 4.451 0 00-1.047-1.606 4.433 4.433 0 00-1.605-1.046c-.578-.224-1.238-.377-2.203-.42-.967-.045-1.275-.056-3.738-.056h.003z"/><path fill-rule="evenodd" clip-rule="evenodd" d="M16.188 9.568H17c2.42 0 2.708.008 3.664.052.884.04 1.363.188 1.683.312.423.164.725.36 1.042.678.317.318.514.62.678 1.043.124.32.272.799.313 1.683.043.956.052 1.243.052 3.662 0 2.42-.009 2.707-.052 3.663-.04.884-.189 1.364-.313 1.683a2.804 2.804 0 01-.678 1.042 2.804 2.804 0 01-1.042.678c-.32.124-.8.272-1.683.312-.956.044-1.243.053-3.664.053-2.421 0-2.708-.01-3.664-.053-.884-.04-1.364-.188-1.683-.313a2.807 2.807 0 01-1.043-.678 2.81 2.81 0 01-.679-1.042c-.124-.319-.272-.799-.312-1.683-.043-.956-.052-1.243-.052-3.664 0-2.421.009-2.707.052-3.662.04-.884.188-1.364.312-1.684a2.81 2.81 0 01.679-1.043c.317-.317.62-.513 1.043-.678.32-.125.8-.272 1.683-.313.837-.037 1.16-.049 2.85-.05v.002zm5.653 1.505a1.088 1.088 0 100 2.176 1.088 1.088 0 000-2.176zM17 12.344a4.656 4.656 0 100 9.313 4.656 4.656 0 000-9.313z"/><path fill-rule="evenodd" clip-rule="evenodd" d="M17 13.977a3.022 3.022 0 110 6.045 3.022 3.022 0 010-6.044z"/></svg><svg viewBox="0 0 25 21" id="reviews-left" xmlns="http://www.w3.org/2000/svg"><path d="M5.218 10.673c1.277.095 2.328.571 3.153 1.428.825.856 1.249 1.951 1.27 3.284.023 1.45-.393 2.645-1.248 3.586-.856.883-1.95 1.335-3.283 1.357-1.507.024-2.733-.508-3.678-1.594-.887-1.088-1.349-2.79-1.386-5.11-.07-4.463 1.346-8.34 4.25-11.634.571-.588 1.233-.889 1.987-.9.637-.01 1.192.212 1.663.669.47.398.71.887.719 1.467.01.637-.213 1.192-.67 1.663-1.482 1.589-2.408 3.517-2.777 5.784zm14.433-.23c1.276.096 2.328.572 3.153 1.429.825.856 1.248 1.951 1.27 3.284.023 1.45-.393 2.645-1.248 3.586-.855.883-1.95 1.335-3.283 1.357-1.507.023-2.733-.508-3.678-1.595-.887-1.087-1.349-2.79-1.386-5.109-.07-4.463 1.346-8.34 4.25-11.634.571-.589 1.233-.889 1.987-.901.637-.01 1.192.213 1.663.67.47.398.71.887.719 1.466.01.638-.213 1.192-.67 1.663-1.482 1.59-2.408 3.517-2.777 5.784z"/></svg><svg viewBox="0 0 24 20" id="reviews-right" xmlns="http://www.w3.org/2000/svg"><path d="M18.783 9.565c-1.276.116-2.32.609-3.13 1.479-.812.869-1.218 1.97-1.218 3.304 0 1.45.435 2.637 1.304 3.565.87.87 1.971 1.304 3.305 1.304 1.507 0 2.724-.55 3.652-1.652.87-1.101 1.304-2.811 1.304-5.13C24 7.97 22.522 4.115 19.565.87c-.58-.58-1.246-.87-2-.87-.638 0-1.188.232-1.652.696-.464.405-.696.898-.696 1.478 0 .638.232 1.188.696 1.652 1.507 1.565 2.464 3.478 2.87 5.74zm-14.435 0c-1.276.116-2.319.609-3.13 1.479C.405 11.912 0 13.014 0 14.348c0 1.45.435 2.637 1.304 3.565.87.87 1.971 1.304 3.305 1.304 1.507 0 2.724-.55 3.652-1.652.87-1.101 1.304-2.811 1.304-5.13C9.565 7.97 8.087 4.115 5.13.87 4.55.29 3.884 0 3.13 0c-.637 0-1.188.232-1.652.696-.464.405-.695.898-.695 1.478 0 .638.231 1.188.695 1.652 1.508 1.565 2.464 3.478 2.87 5.74z"/></svg><svg viewBox="0 0 34 34" id="telegram" xmlns="http://www.w3.org/2000/svg"><path fill-rule="evenodd" clip-rule="evenodd" d="M34 17c0 9.389-7.611 17-17 17S0 26.389 0 17 7.611 0 17 0s17 7.611 17 17zm-22.616-1.557c-1.703.743-3.453 1.507-5.053 2.389-.835.611.275 1.044 1.317 1.45.166.064.33.128.483.192l.391.123c1.159.37 2.45.78 3.575.162 1.848-1.062 3.592-2.289 5.334-3.515.571-.402 1.142-.803 1.716-1.2.027-.016.057-.036.09-.058.49-.317 1.59-1.03 1.183-.047-.962 1.052-1.993 1.984-3.03 2.92-.698.631-1.399 1.265-2.083 1.94-.596.483-1.215 1.457-.548 2.135 1.538 1.076 3.099 2.126 4.659 3.175.507.342 1.015.683 1.522 1.026.858.685 2.2.13 2.389-.94l.252-1.479c.466-2.723.932-5.448 1.344-8.18.056-.428.12-.857.183-1.286.153-1.039.307-2.08.355-3.124-.123-1.043-1.388-.813-2.091-.58-3.616 1.377-7.196 2.855-10.762 4.359-.404.179-.814.358-1.226.538z"/></svg><svg viewBox="0 0 34 34" id="vk" xmlns="http://www.w3.org/2000/svg"><path fill-rule="evenodd" clip-rule="evenodd" d="M0 17C0 7.611 7.611 0 17 0s17 7.611 17 17-7.611 17-17 17S0 26.389 0 17zm17.89 5.579s.327-.036.494-.213c.154-.162.148-.467.148-.467s-.02-1.427.655-1.638c.665-.207 1.52 1.38 2.425 1.99.685.462 1.205.361 1.205.361l2.422-.033s1.267-.077.666-1.054c-.05-.08-.35-.724-1.8-2.045-1.52-1.384-1.316-1.16.513-3.553 1.114-1.458 1.56-2.347 1.42-2.728-.132-.364-.951-.267-.951-.267l-2.727.016s-.202-.026-.352.061c-.146.087-.241.288-.241.288s-.431 1.127-1.007 2.086c-1.214 2.024-1.7 2.13-1.898 2.006-.462-.294-.347-1.177-.347-1.805 0-1.962.304-2.78-.59-2.99-.296-.071-.514-.117-1.272-.125-.973-.01-1.796.003-2.263.227-.31.149-.55.482-.403.5.18.024.588.109.804.398.28.373.27 1.21.27 1.21s.16 2.31-.375 2.596c-.367.197-.871-.205-1.954-2.04-.554-.941-.973-1.98-.973-1.98s-.08-.195-.225-.3c-.175-.125-.419-.165-.419-.165l-2.59.017s-.39.01-.533.177c-.126.147-.01.452-.01.452s2.029 4.659 4.326 7.007c2.106 2.152 4.497 2.01 4.497 2.01h1.084z"/></svg><svg viewBox="0 0 34 34" id="youtube" xmlns="http://www.w3.org/2000/svg"><path fill-rule="evenodd" clip-rule="evenodd" d="M0 17C0 7.611 7.611 0 17 0s17 7.611 17 17-7.611 17-17 17S0 26.389 0 17zm25.688-4.198a2.302 2.302 0 00-1.604-1.646c-1.413-.39-7.084-.39-7.084-.39s-5.67 0-7.085.39a2.302 2.302 0 00-1.603 1.646c-.379 1.452-.379 4.481-.379 4.481s0 3.03.38 4.482a2.302 2.302 0 001.602 1.646C11.33 23.8 17 23.8 17 23.8s5.67 0 7.084-.389a2.302 2.302 0 001.604-1.646c.379-1.452.379-4.482.379-4.482s0-3.03-.38-4.481z"/><path fill-rule="evenodd" clip-rule="evenodd" d="M15.3 20.4v-5.667l4.533 2.834L15.3 20.4z"/></svg></svg>