<svg width="21" height="23" viewBox="0 0 21 23" fill="none" xmlns="http://www.w3.org/2000/svg">
<path d="M5.48027 22.0923C4.00388 22.0923 2.62203 21.466 1.62422 20.4682C-0.309199 18.5347 -0.848193 15.1593 1.8625 12.4486C2.20199 12.1091 2.7596 11.5515 3.45759 10.8536C6.02495 8.28629 10.4915 3.8199 12.9885 1.32241C14.1159 0.195014 15.5509 -0.240224 16.9247 0.127865C18.274 0.489215 19.3798 1.5946 19.7412 2.94366C20.1093 4.31832 19.674 5.75294 18.5468 6.88034L7.90687 17.5205C7.29938 18.128 6.61329 18.4876 5.92337 18.5606C5.24042 18.6324 4.58824 18.4126 4.13189 17.9565C3.30408 17.1289 3.18618 15.5712 4.56219 14.1958L12.0358 6.72179C12.3428 6.41478 12.8402 6.41478 13.1472 6.72179C13.4542 7.02879 13.4542 7.52646 13.1472 7.83324L5.67386 15.3071C5.02774 15.953 4.96845 16.5697 5.24357 16.8448C5.36417 16.9654 5.5472 17.0197 5.75808 16.997C6.0817 16.9629 6.45024 16.7538 6.79542 16.4086L17.4354 5.76889C18.1653 5.039 18.4451 4.1802 18.2228 3.35105C18.0038 2.53425 17.335 1.86545 16.5182 1.64648C15.6893 1.42415 14.8303 1.70397 14.0999 2.43409C10.9243 5.60989 4.56219 11.9723 2.97395 13.5601C0.901068 15.6329 1.39739 18.018 2.73567 19.3563C4.07395 20.6945 6.45877 21.1913 8.53233 19.1182L19.6583 7.99202C19.9653 7.68501 20.4627 7.68501 20.7697 7.99202C21.0768 8.29902 21.0768 8.79669 20.7697 9.10347L9.64378 20.2299C8.33245 21.5417 6.86459 22.0923 5.48027 22.0923Z" fill="#E7E7E7"/>
<path d="M5.48027 22.0923C4.00388 22.0923 2.62203 21.466 1.62422 20.4682C-0.309199 18.5347 -0.848193 15.1593 1.8625 12.4486C2.20199 12.1091 2.7596 11.5515 3.45759 10.8536C6.02495 8.28629 10.4915 3.8199 12.9885 1.32241C14.1159 0.195014 15.5509 -0.240224 16.9247 0.127865C18.274 0.489215 19.3798 1.5946 19.7412 2.94366C20.1093 4.31832 19.674 5.75294 18.5468 6.88034L7.90687 17.5205C7.29938 18.128 6.61329 18.4876 5.92337 18.5606C5.24042 18.6324 4.58824 18.4126 4.13189 17.9565C3.30408 17.1289 3.18618 15.5712 4.56219 14.1958L12.0358 6.72179C12.3428 6.41478 12.8402 6.41478 13.1472 6.72179C13.4542 7.02879 13.4542 7.52646 13.1472 7.83324L5.67386 15.3071C5.02774 15.953 4.96845 16.5697 5.24357 16.8448C5.36417 16.9654 5.5472 17.0197 5.75808 16.997C6.0817 16.9629 6.45024 16.7538 6.79542 16.4086L17.4354 5.76889C18.1653 5.039 18.4451 4.1802 18.2228 3.35105C18.0038 2.53425 17.335 1.86545 16.5182 1.64648C15.6893 1.42415 14.8303 1.70397 14.0999 2.43409C10.9243 5.60989 4.56219 11.9723 2.97395 13.5601C0.901068 15.6329 1.39739 18.018 2.73567 19.3563C4.07395 20.6945 6.45877 21.1913 8.53233 19.1182L19.6583 7.99202C19.9653 7.68501 20.4627 7.68501 20.7697 7.99202C21.0768 8.29902 21.0768 8.79669 20.7697 9.10347L9.64378 20.2299C8.33245 21.5417 6.86459 22.0923 5.48027 22.0923Z" stroke="black"/>
</svg>
