<svg width="35" height="25" viewBox="0 0 35 25" fill="none" xmlns="http://www.w3.org/2000/svg">
<path d="M31.3895 0H2.6169C1.17561 0 0 1.16897 0 2.6169V22.3831C0 23.8244 1.17561 25 2.6169 25H31.3895C32.8308 25 34.0064 23.8244 34.0064 22.3831V2.6169C34.0064 1.16897 32.8308 0 31.3895 0ZM32.7245 22.3765C32.7245 23.1137 32.1267 23.7115 31.3895 23.7115H2.6169C1.87965 23.7115 1.27524 23.1137 1.27524 22.3765V2.6169C1.27524 1.87965 1.87301 1.27524 2.6169 1.27524H31.3895C32.1267 1.27524 32.7245 1.87301 32.7245 2.6169V22.3765Z" fill="#E7E7E7"/>
<path d="M27.6435 6.29027C27.7896 6.29027 27.9357 6.24378 28.0553 6.14415L31.0906 3.60695C31.3629 3.38113 31.3961 2.97598 31.1703 2.70366C30.9445 2.43134 30.5393 2.39813 30.267 2.62396L27.2317 5.16115C26.9593 5.38697 26.9261 5.79213 27.152 6.06445C27.2782 6.21057 27.4641 6.29027 27.6435 6.29027Z" fill="#E7E7E7"/>
<path d="M25.0199 7.84338C24.7941 7.57106 24.389 7.53785 24.1166 7.76368L17.1161 13.6218L3.40728 2.61623C3.13497 2.39705 2.72981 2.4369 2.51063 2.71586C2.29145 2.98817 2.3313 3.39333 2.61026 3.61251L16.7309 14.9502C16.8504 15.0432 16.9899 15.0897 17.1294 15.0897C17.2755 15.0897 17.4216 15.0365 17.5412 14.9435L24.9402 8.74668C25.2059 8.52085 25.2458 8.1157 25.0199 7.84338Z" fill="#E7E7E7"/>
<path d="M21.978 13.2235C21.7123 12.9844 21.3138 13.0043 21.0747 13.27C20.8355 13.529 20.8555 13.9342 21.1212 14.1733L30.2471 22.4159C30.3666 22.5288 30.5194 22.5819 30.6722 22.5819C30.8448 22.5819 31.0175 22.5088 31.1437 22.3694C31.3828 22.1103 31.3629 21.7052 31.0972 21.4661L21.978 13.2235Z" fill="#E7E7E7"/>
<path d="M11.703 13.2235L2.57705 21.4661C2.31802 21.7052 2.29145 22.1103 2.53056 22.3694C2.65675 22.5088 2.82944 22.5819 3.00213 22.5819C3.15489 22.5819 3.30766 22.5288 3.42721 22.4159L12.5531 14.1733C12.8122 13.9342 12.8387 13.529 12.5996 13.27C12.3738 13.0043 11.9687 12.9844 11.703 13.2235Z" fill="#E7E7E7"/>
</svg>
