<svg width="34" height="34" viewBox="0 0 34 34" fill="none" xmlns="http://www.w3.org/2000/svg">
<path fill-rule="evenodd" clip-rule="evenodd" d="M0 17C0 7.61118 7.61118 0 17 0C26.3888 0 34 7.61118 34 17C34 26.3888 26.3888 34 17 34C7.61118 34 0 26.3888 0 17ZM17.0008 7.93333C14.5385 7.93333 14.2294 7.9441 13.2623 7.98809C12.2971 8.03229 11.6383 8.18515 11.0618 8.40933C10.4654 8.64089 9.95959 8.95071 9.45561 9.45483C8.95128 9.95881 8.64145 10.4646 8.40912 11.0608C8.18437 11.6375 8.03137 12.2965 7.98795 13.2613C7.94467 14.2285 7.93333 14.5377 7.93333 17.0001C7.93333 19.4624 7.94431 19.7706 7.98809 20.7377C8.0325 21.7029 8.18529 22.3617 8.40933 22.9382C8.6411 23.5346 8.95085 24.0404 9.45505 24.5444C9.95881 25.0487 10.4646 25.3593 11.0606 25.5909C11.6375 25.8151 12.2965 25.9679 13.2616 26.0121C14.2287 26.0561 14.5375 26.0669 16.9997 26.0669C19.4623 26.0669 19.7704 26.0561 20.7375 26.0121C21.7027 25.9679 22.3623 25.8151 22.9392 25.5909C23.5354 25.3593 24.0404 25.0487 24.5442 24.5444C25.0485 24.0404 25.3583 23.5346 25.5907 22.9385C25.8136 22.3617 25.9666 21.7027 26.0119 20.7379C26.0553 19.7707 26.0667 19.4624 26.0667 17.0001C26.0667 14.5377 26.0553 14.2287 26.0119 13.2616C25.9666 12.2963 25.8136 11.6375 25.5907 11.061C25.3583 10.4646 25.0485 9.95881 24.5442 9.45483C24.0398 8.9505 23.5355 8.64075 22.9387 8.40933C22.3606 8.18515 21.7014 8.03229 20.7362 7.98809C19.769 7.9441 19.4612 7.93333 16.998 7.93333H17.0008Z" fill="#E7E7E7"/>
<path fill-rule="evenodd" clip-rule="evenodd" d="M16.1875 9.5677C16.4289 9.56734 16.6982 9.5677 17.0008 9.5677C19.4216 9.5677 19.7086 9.57641 20.6646 9.61983C21.5486 9.66028 22.0284 9.80796 22.348 9.93206C22.7711 10.0964 23.0728 10.2928 23.3899 10.6102C23.7072 10.9275 23.9037 11.2297 24.0684 11.6529C24.1925 11.9721 24.3404 12.4519 24.3806 13.3359C24.424 14.2916 24.4335 14.5788 24.4335 16.9985C24.4335 19.4181 24.424 19.7053 24.3806 20.661C24.3402 21.545 24.1925 22.0249 24.0684 22.344C23.9041 22.7672 23.7072 23.0685 23.3899 23.3857C23.0725 23.703 22.7713 23.8994 22.348 24.0637C22.0287 24.1884 21.5486 24.3357 20.6646 24.3762C19.7088 24.4196 19.4216 24.429 17.0008 24.429C14.5798 24.429 14.2929 24.4196 13.3371 24.3762C12.4531 24.3354 11.9733 24.1876 11.6536 24.0635C11.2304 23.8992 10.9282 23.7028 10.6108 23.3854C10.2935 23.0681 10.0971 22.7666 9.93239 22.3433C9.80829 22.0241 9.66039 21.5443 9.62016 20.6603C9.57667 19.7045 9.56802 19.4174 9.56802 16.9962C9.56802 14.575 9.57667 14.2894 9.62016 13.3336C9.66053 12.4496 9.80829 11.9698 9.93239 11.6502C10.0967 11.2271 10.2935 10.9249 10.6108 10.6075C10.9282 10.2902 11.2304 10.0938 11.6536 9.92902C11.9732 9.80435 12.4531 9.65702 13.3371 9.61643C14.1735 9.57868 14.4977 9.56734 16.1875 9.56543V9.5677ZM21.8406 11.0731C21.2399 11.0731 20.7526 11.56 20.7526 12.1608C20.7526 12.7614 21.2399 13.2488 21.8406 13.2488C22.4413 13.2488 22.9286 12.7614 22.9286 12.1608C22.9286 11.5601 22.4413 11.0731 21.8406 11.0731ZM17.0008 12.3444C14.4295 12.3444 12.3447 14.4292 12.3447 17.0005C12.3447 19.5719 14.4295 21.6558 17.0008 21.6558C19.5722 21.6558 21.6562 19.5719 21.6562 17.0005C21.6562 14.4292 19.5722 12.3444 17.0008 12.3444Z" fill="#E7E7E7"/>
<path fill-rule="evenodd" clip-rule="evenodd" d="M17.0009 13.9775C18.6699 13.9775 20.0231 15.3306 20.0231 16.9998C20.0231 18.6688 18.6699 20.022 17.0009 20.022C15.3316 20.022 13.9786 18.6688 13.9786 16.9998C13.9786 15.3306 15.3316 13.9775 17.0009 13.9775Z" fill="#E7E7E7"/>
</svg>
