<svg width="35" height="35" viewBox="0 0 35 35" fill="none" xmlns="http://www.w3.org/2000/svg">
<path d="M25.8603 0H9.13281C7.64941 0 6.43945 1.20996 6.43945 2.69336V22.8184C6.43945 23.1807 6.7334 23.4746 7.0957 23.4746C7.45801 23.4746 7.75195 23.1807 7.75195 22.8184V6.47363H20.3096C20.6719 6.47363 20.9658 6.17969 20.9658 5.81738C20.9658 5.45508 20.6719 5.16113 20.3096 5.16113H7.75879V2.69336C7.75879 1.93457 8.37402 1.31934 9.13281 1.31934H25.8603C26.6191 1.31934 27.2412 1.93457 27.2412 2.69336V5.16113H24.4043C24.042 5.16113 23.748 5.45508 23.748 5.81738C23.748 6.17969 24.042 6.47363 24.4043 6.47363H27.2412V28.1025H14.5332C14.1709 28.1025 13.877 28.3965 13.877 28.7588C13.877 29.1211 14.1709 29.415 14.5332 29.415H27.2412V32.2998C27.2412 33.0586 26.626 33.6807 25.8603 33.6807H9.13281C8.37402 33.6807 7.75879 33.0654 7.75879 32.2998V29.415H10.5889C10.9512 29.415 11.2451 29.1211 11.2451 28.7588C11.2451 28.3965 10.9512 28.1025 10.5889 28.1025H7.75879V25.8535C7.75879 25.4912 7.46484 25.1973 7.10254 25.1973C6.74023 25.1973 6.44629 25.4912 6.44629 25.8535V32.3066C6.44629 33.79 7.65625 35 9.13965 35H25.8672C27.3506 35 28.5605 33.79 28.5605 32.3066V2.69336C28.5605 1.20996 27.3506 0 25.8603 0Z" fill="#E7E7E7"/>
<path d="M19.0723 32.1357C19.4346 32.1357 19.7285 31.8418 19.7285 31.4795C19.7285 31.1172 19.4346 30.8232 19.0723 30.8232H15.9277C15.5654 30.8232 15.2715 31.1172 15.2715 31.4795C15.2715 31.8418 15.5654 32.1357 15.9277 32.1357H19.0723Z" fill="#E7E7E7"/>
<path d="M16.5156 2.81641C16.1533 2.81641 15.8594 3.11035 15.8594 3.47266C15.8594 3.83496 16.1533 4.12891 16.5156 4.12891H18.4912C18.8535 4.12891 19.1475 3.83496 19.1475 3.47266C19.1475 3.11035 18.8535 2.81641 18.4912 2.81641H16.5156Z" fill="#E7E7E7"/>
</svg>
