<svg width="25" height="36" viewBox="0 0 25 36" fill="none" xmlns="http://www.w3.org/2000/svg">
<path d="M15.3844 14.5201C15.8062 14.7029 16.2984 14.5061 16.4812 14.0842C16.7203 13.5217 16.8469 12.917 16.8469 12.2982C16.8469 9.78809 14.8078 7.74902 12.2976 7.74902C9.78749 7.74902 7.74843 9.78809 7.74843 12.2982C7.74843 14.8084 9.78749 16.8475 12.2976 16.8475C12.9445 16.8475 13.5703 16.7139 14.1539 16.4537C14.5758 16.2639 14.7656 15.7717 14.5758 15.3498C14.3859 14.9279 13.8937 14.7381 13.4719 14.9279C13.0992 15.0967 12.7055 15.1811 12.2976 15.1811C10.7086 15.1811 9.41484 13.8873 9.41484 12.2982C9.41484 10.7092 10.7086 9.41543 12.2976 9.41543C13.8867 9.41543 15.1805 10.7092 15.1805 12.2982C15.1805 12.692 15.1031 13.0717 14.9484 13.4303C14.7586 13.8451 14.9555 14.3373 15.3844 14.5201Z" fill="#E7E7E7"/>
<path d="M12.2906 0C5.5125 0 0 5.5125 0 12.2906C0 12.7055 0.0562501 13.4789 0.0632814 13.5352C0.246094 15.3492 0.815625 17.0578 1.75781 18.6258L2.97422 20.6297C5.70937 25.1437 8.53594 29.8055 11.025 34.5445L11.5523 35.55C11.693 35.8242 11.9812 36 12.2906 36C12.6 36 12.8883 35.8313 13.0289 35.55L13.5562 34.5445C14.8852 32.0062 16.425 29.2852 18.3937 25.9664C18.6258 25.5727 18.4992 25.0594 18.1055 24.8203C17.7117 24.5812 17.1984 24.7148 16.9594 25.1086C15.075 28.2797 13.5844 30.9164 12.2906 33.3633C9.82969 28.7156 7.07344 24.1664 4.40156 19.7578L3.18516 17.7539C2.36953 16.4039 1.87734 14.9273 1.72266 13.3805C1.70859 13.1766 1.66641 12.5789 1.66641 12.2836C1.66641 6.42656 6.43359 1.65938 12.2906 1.65938C18.1477 1.65938 22.9148 6.42656 22.9148 12.2836C22.9148 12.5789 22.8727 13.1766 22.8586 13.3594C22.7039 14.9273 22.2047 16.4039 21.3961 17.7539L20.1586 19.807C19.6594 20.6297 19.1602 21.4523 18.668 22.275C18.4289 22.6687 18.5555 23.182 18.9492 23.4211C19.343 23.6602 19.8562 23.5336 20.0953 23.1398C20.5945 22.3172 21.0867 21.4945 21.5859 20.6719L22.8305 18.6187C23.7727 17.0578 24.3422 15.3422 24.532 13.5141C24.532 13.4789 24.5953 12.7055 24.5953 12.2906C24.5812 5.5125 19.0687 0 12.2906 0Z" fill="#E7E7E7"/>
</svg>
