<svg width="25" height="21" viewBox="0 0 25 21" fill="none" xmlns="http://www.w3.org/2000/svg">
<path d="M5.2175 10.6726C6.49454 10.7682 7.54571 11.2444 8.37101 12.1009C9.19631 12.9575 9.61955 14.0524 9.64072 15.3855C9.66373 16.8346 9.24788 18.0298 8.39315 18.971C7.5375 19.8543 6.4431 20.3065 5.10993 20.3277C3.60287 20.3516 2.37689 19.8203 1.43198 18.7337C0.545036 17.6462 0.0831524 15.9432 0.0463311 13.6246C-0.0245499 9.16142 1.39231 5.28335 4.29691 1.99044C4.86734 1.4016 5.52932 1.10119 6.28285 1.08923C6.92045 1.0791 7.47479 1.30221 7.94586 1.75856C8.41601 2.15694 8.65569 2.64595 8.6649 3.22558C8.67502 3.86319 8.45191 4.41752 7.99557 4.8886C6.51337 6.47755 5.58734 8.40554 5.2175 10.6726ZM19.6505 10.4434C20.9275 10.539 21.9787 11.0152 22.804 11.8717C23.6293 12.7283 24.0525 13.8232 24.0737 15.1563C24.0967 16.6054 23.6808 17.8006 22.8261 18.7418C21.9705 19.6251 20.8761 20.0773 19.5429 20.0985C18.0358 20.1224 16.8099 19.5911 15.8649 18.5045C14.978 17.417 14.5161 15.714 14.4793 13.3954C14.4084 8.9322 15.8253 5.05414 18.7299 1.76123C19.3003 1.17239 19.9623 0.871982 20.7158 0.860015C21.3534 0.849889 21.9077 1.073 22.3788 1.52935C22.849 1.92773 23.0887 2.41673 23.0979 2.99637C23.108 3.63397 22.8849 4.18831 22.4285 4.65939C20.9463 6.24834 20.0203 8.17633 19.6505 10.4434Z" fill="#E7E7E7"/>
</svg>
