<svg width="34" height="34" viewBox="0 0 34 34" fill="none" xmlns="http://www.w3.org/2000/svg">
<path fill-rule="evenodd" clip-rule="evenodd" d="M0 17C0 7.61118 7.61118 0 17 0C26.3888 0 34 7.61118 34 17C34 26.3888 26.3888 34 17 34C7.61118 34 0 26.3888 0 17ZM17.8893 22.5789C17.8893 22.5789 18.2166 22.5432 18.3842 22.3665C18.5376 22.2045 18.5323 21.899 18.5323 21.899C18.5323 21.899 18.5119 20.4721 19.1868 20.2614C19.852 20.0542 20.7061 21.6413 21.6125 22.2516C22.2972 22.713 22.8169 22.612 22.8169 22.612L25.239 22.5789C25.239 22.5789 26.5055 22.5023 25.9051 21.5246C25.8554 21.4445 25.5548 20.8012 24.1047 19.4796C22.5854 18.0963 22.7894 18.32 24.6182 15.9268C25.7322 14.4694 26.1774 13.5797 26.0381 13.1993C25.906 12.8354 25.0865 12.932 25.0865 12.932L22.3602 12.9485C22.3602 12.9485 22.1579 12.9216 22.0081 13.0095C21.8617 13.0957 21.7668 13.2968 21.7668 13.2968C21.7668 13.2968 21.3358 14.4241 20.7602 15.3835C19.546 17.4068 19.0609 17.5138 18.8622 17.3885C18.4002 17.0951 18.5154 16.2115 18.5154 15.5838C18.5154 13.6224 18.8188 12.8049 17.9256 12.5933C17.6294 12.5228 17.4113 12.4767 16.6529 12.4689C15.68 12.4593 14.8569 12.4723 14.3904 12.6961C14.08 12.8449 13.8406 13.1775 13.9869 13.1967C14.167 13.2201 14.575 13.3046 14.7913 13.5936C15.0707 13.9671 15.0609 14.8046 15.0609 14.8046C15.0609 14.8046 15.2215 17.1134 14.6858 17.3998C14.3186 17.5966 13.8148 17.1952 12.7319 15.3591C12.1777 14.419 11.759 13.3795 11.759 13.3795C11.759 13.3795 11.6783 13.1853 11.5337 13.0809C11.359 12.9546 11.1151 12.9155 11.1151 12.9155L8.52451 12.932C8.52451 12.932 8.13514 12.9425 7.99234 13.1087C7.86555 13.2558 7.98256 13.5614 7.98256 13.5614C7.98256 13.5614 10.0109 18.2199 12.308 20.5679C14.4144 22.7199 16.8055 22.5789 16.8055 22.5789H17.8893Z" fill="#E7E7E7"/>
</svg>
