<svg width="75" height="75" viewBox="0 0 75 75" fill="none" xmlns="http://www.w3.org/2000/svg">
<path d="M60.0823 14.9177C52.6919 7.52742 40.6669 7.52742 33.2766 14.9177C26.4788 21.7157 25.9344 32.4345 31.6424 39.8611L30.2609 41.2425C29.3422 40.8056 28.2086 40.964 27.4492 41.7233L10.5819 58.5908C9.80364 59.3691 9.375 60.4038 9.375 61.5045C9.375 62.6052 9.80364 63.6399 10.5818 64.4181C11.3601 65.1964 12.3948 65.625 13.4955 65.625C14.5962 65.625 15.6309 65.1964 16.4092 64.4182L33.2766 47.5508C34.036 46.7913 34.1944 45.6577 33.7573 44.7391L35.1388 43.3576C38.5285 45.9629 42.6038 47.2662 46.6794 47.2662C51.5332 47.2662 56.3871 45.4187 60.0823 41.7235C67.4725 34.3331 67.4725 22.3082 60.0823 14.9177ZM14.661 61.5045L29.1974 46.9681L30.3628 48.1335L15.8264 62.6699L14.661 61.5045ZM13.4955 60.339L12.3302 59.1737L26.8666 44.6372L28.032 45.8026L13.4955 60.339ZM11.7473 63.2526C11.2804 62.7857 11.0232 62.1649 11.0232 61.5045C11.0232 61.1297 11.1088 60.7687 11.2658 60.4403L14.5597 63.7342C14.2313 63.8912 13.8703 63.9768 13.4955 63.9768C12.8351 63.9768 12.2143 63.7196 11.7473 63.2526ZM32.1111 46.3852L31.5284 46.9679L28.0321 43.4716L28.6148 42.8889C28.7755 42.7281 28.9866 42.6479 29.1975 42.6479C29.4086 42.6479 29.6197 42.7281 29.7803 42.8889L32.1112 45.2198C32.4325 45.5411 32.4325 46.0639 32.1111 46.3852ZM32.6939 43.4715L31.5286 42.3062L32.7074 41.1274C32.8924 41.329 33.0813 41.5282 33.2766 41.7235C33.4719 41.9187 33.6711 42.1077 33.8727 42.2927L32.6939 43.4715ZM58.9166 40.5579C52.1691 47.3056 41.1896 47.3056 34.4421 40.5579C27.6944 33.8102 27.6944 22.831 34.4421 16.0834C37.8159 12.7095 42.2477 11.0225 46.6794 11.0225C51.1111 11.0225 55.5429 12.7095 58.9166 16.0834C65.6644 22.831 65.6644 33.8102 58.9166 40.5579ZM62.3373 28.3206C62.3373 36.9545 55.3132 43.9786 46.6794 43.9786C38.0455 43.9786 31.0214 36.9545 31.0214 28.3206C31.0214 24.7281 32.2058 21.3486 34.4466 18.5475C34.7309 18.192 35.2495 18.1343 35.6049 18.4188C35.9603 18.703 36.018 19.2217 35.7336 19.577C33.7292 22.0827 32.6696 25.1063 32.6696 28.3206C32.6696 36.0456 38.9543 42.3304 46.6794 42.3304C54.4044 42.3304 60.6891 36.0456 60.6891 28.3206C60.6891 20.5956 54.4044 14.3109 46.6794 14.3109C43.465 14.3109 40.4415 15.3705 37.9358 17.3749C37.5805 17.6593 37.0619 17.6017 36.7775 17.2461C36.4931 16.8908 36.5508 16.3721 36.9063 16.0879C39.7074 13.8471 43.0868 12.6627 46.6794 12.6627C55.3132 12.6627 62.3373 19.6868 62.3373 28.3206Z" fill="black"/>
</svg>
